Coordinates
version=1
nRows=26
nColumns=22
inDegrees=yes

Units are S.I. units (second, meters, Newtons, ...)
If the header above contains a line with 'inDegrees', this indicates whether rotational values are in degrees (yes) or radians (no).

endheader
time	pelvis_tilt	pelvis_list	pelvis_rotation	pelvis_tx	pelvis_ty	pelvis_tz	hip_flexion_r	hip_adduction_r	hip_rotation_r	knee_angle_r	ankle_angle_r	subtalar_angle_r	hip_flexion_l	hip_adduction_l	hip_rotation_l	knee_angle_l	ankle_angle_l	subtalar_angle_l	lumbar_extension	lumbar_bending	lumbar_rotation
      6.24000000	      1.25586541	     -1.12303916	   -111.46521209	      0.71712216	      1.00794023	      0.40163708	     13.84760170	     -4.08495995	     -6.69938703	    -56.44939445	      5.30664395	     -2.19846834	      9.01344292	      2.52997950	      0.88237715	    -13.95866319	      7.14364399	      4.08528064	    -14.66254079	     -4.42138321	      1.44189916
      6.25000000	      1.02947045	     -1.22704026	   -112.03137891	      0.71609574	      1.00879160	      0.40640714	     14.21796584	     -3.98361489	     -7.27425705	    -55.71078393	      6.02996641	     -2.07582447	      8.37482882	      2.37146175	      0.39358502	    -13.76462267	      7.40209726	      3.80132561	    -14.93926998	     -4.23587722	      1.29867912
      6.26000000	      0.84086200	     -1.25056994	   -112.58843978	      0.71494264	      1.00941126	      0.41102315	     14.66871610	     -3.81549112	     -7.74036018	    -54.85918955	      6.75238465	     -1.76356266	      7.86371374	      2.21442697	     -0.11320441	    -13.62162980	      7.64715438	      3.59824348	    -15.11841132	     -4.07822817	      1.14305116
      6.27000000	      0.67100363	     -1.25642627	   -113.14885832	      0.71369180	      1.00992347	      0.41554563	     15.11902319	     -3.61080665	     -8.11527652	    -53.88888850	      7.45484888	     -1.24577388	      7.38808261	      2.06870433	     -0.62698174	    -13.49553061	      7.85879573	      3.39389711	    -15.27194931	     -3.94184322	      1.00550915
      6.28000000	      0.52342101	     -1.23307167	   -113.72709006	      0.71232813	      1.01029186	      0.41995851	     15.58952054	     -3.37432590	     -8.39653145	    -52.82493373	      8.11517794	     -0.70303757	      6.96529445	      1.92976515	     -1.17416701	    -13.39636888	      8.11073186	      3.22085646	    -15.38642187	     -3.82659343	      0.88321216
      6.29000000	      0.40022854	     -1.19593109	   -114.31932177	      0.71086697	      1.01053842	      0.42428043	     16.06534004	     -3.13391069	     -8.61131395	    -51.68450015	      8.72275380	     -0.17963767	      6.57602269	      1.80808200	     -1.74015863	    -13.31582608	      8.40011528	      3.05841867	    -15.47714210	     -3.73805961	      0.76279328
      6.30000000	      0.29958590	     -1.15432576	   -114.91219556	      0.70935356	      1.01069257	      0.42854155	     16.53167722	     -2.91956256	     -8.81129405	    -50.48045827	      9.29393408	      0.33727407	      6.20769765	      1.70997661	     -2.30424912	    -13.24665571	      8.66841803	      2.89365994	    -15.55448483	     -3.67088960	      0.65145160
      6.31000000	      0.21895192	     -1.11117018	   -115.50940164	      0.70778717	      1.01076883	      0.43275801	     16.98470830	     -2.73932981	     -9.01374948	    -49.22529181	      9.81296092	      0.77509320	      5.85344576	      1.63449456	     -2.86724999	    -13.18557374	      8.93521442	      2.73273624	    -15.62062058	     -3.62188775	      0.54453015
      6.32000000	      0.15567191	     -1.06386527	   -116.11608196	      0.70615875	      1.01076643	      0.43694690	     17.42793646	     -2.59843478	     -9.24406732	    -47.93194910	     10.26915564	      1.03479995	      5.51369829	      1.57674061	     -3.43888250	    -13.13417293	      9.24499681	      2.59645069	    -15.67056677	     -3.58826032	      0.46441684
      6.33000000	      0.10099158	     -1.02693808	   -116.72863337	      0.70446505	      1.01074275	      0.44110962	     17.83870952	     -2.48997593	     -9.49708473	    -46.59943355	     10.68164378	      1.21530330	      5.16420662	      1.53575488	     -4.00782960	    -13.07932410	      9.53548817	      2.45814136	    -15.72508399	     -3.56673809	      0.37761762
      6.34000000	      0.05136689	     -0.99783280	   -117.34528516	      0.70272320	      1.01069736	      0.44527090	     18.22025972	     -2.41716078	     -9.79954200	    -45.23980513	     11.04857330	      1.28476001	      4.80545792	      1.50880442	     -4.57442133	    -13.02148215	      9.82336923	      2.32666544	    -15.78068125	     -3.54671339	      0.29974296
      6.35000000	      0.00119045	     -0.97060508	   -117.96797922	      0.70089461	      1.01063035	      0.44941533	     18.57778104	     -2.36224252	    -10.15232642	    -43.85773877	     11.37581653	      1.24737084	      4.44183844	      1.48347572	     -5.14443283	    -12.96467684	     10.13506197	      2.20969325	    -15.83359975	     -3.52926753	      0.24541453
      6.36000000	     -0.05689862	     -0.95046764	   -118.59246453	      0.69899426	      1.01056726	      0.45354622	     18.90303748	     -2.31430241	    -10.55380687	    -42.45531749	     11.65091810	      1.11618414	      4.06325011	      1.45696911	     -5.71837429	    -12.90365586	     10.44577881	      2.10439500	    -15.89340183	     -3.50415413	      0.20518450
      6.37000000	     -0.11992740	     -0.93130163	   -119.21032997	      0.69702324	      1.01049851	      0.45766288	     19.20599331	     -2.26843113	    -11.00643879	    -41.04038014	     11.86940686	      0.91036770	      3.67906364	      1.42806227	     -6.28930683	    -12.84184727	     10.75420713	      2.01982410	    -15.95434934	     -3.46982054	      0.17654464
      6.38000000	     -0.18917685	     -0.91091661	   -119.82253352	      0.69498891	      1.01042003	      0.46174820	     19.49386246	     -2.21102211	    -11.49101509	    -39.62137373	     12.02447409	      0.66128030	      3.29446976	      1.39558565	     -6.85419595	    -12.78593154	     11.05941349	      1.95593432	    -16.01571154	     -3.42283699	      0.15883504
      6.39000000	     -0.26198970	     -0.88920796	   -120.42430779	      0.69287378	      1.01033024	      0.46579100	     19.76767423	     -2.12924300	    -11.97320261	    -38.19879917	     12.12182333	      0.40151562	      2.90612985	      1.36035732	     -7.40913014	    -12.72530006	     11.36090256	      1.90666628	    -16.07691867	     -3.36599658	      0.12051162
      6.40000000	     -0.31518069	     -0.81072571	   -121.01097950	      0.69071396	      1.01011434	      0.46977503	     20.10562786	     -2.01787471	    -12.45411531	    -36.79945243	     12.17937578	      0.32321787	      2.60469501	      1.31053301	     -7.96507978	    -12.70875496	     11.67887645	      1.85406439	    -16.06953419	     -3.28787135	      0.10003693
      6.41000000	     -0.42104188	     -0.78670206	   -121.62600073	      0.68838503	      1.01003561	      0.47371481	     20.34152617	     -1.83094355	    -12.84022400	    -35.37362763	     12.07022449	      0.17010013	      2.17134574	      1.24772489	     -8.50914982	    -12.60441340	     11.99433303	      1.80886899	    -16.14686829	     -3.19712892	      0.10284656
      6.42000000	     -0.49966803	     -0.69712015	   -122.20556418	      0.68602961	      1.00980923	      0.47762379	     20.64911648	     -1.62015995	    -13.23733815	    -33.97859539	     11.96385715	      0.17786508	      1.84649514	      1.16889720	     -9.07021160	    -12.56020029	     12.27416681	      1.75624720	    -16.14351547	     -3.08284052	      0.10226692
      6.43000000	     -0.59064841	     -0.61680649	   -122.80017773	      0.68356012	      1.00959386	      0.48150731	     20.92976601	     -1.35949583	    -13.54556742	    -32.59132525	     11.74543882	      0.24528318	      1.47620805	      1.08946461	     -9.62851766	    -12.46927660	     12.56284162	      1.70437214	    -16.15704024	     -2.96394473	      0.12630649
      6.44000000	     -0.71311515	     -0.59920342	   -123.40556073	      0.68097109	      1.00946499	      0.48540017	     21.11580045	     -1.06930552	    -13.76927334	    -31.21284539	     11.50542205	      0.40836317	      0.99870144	      1.02402748	    -10.21025163	    -12.33025557	     12.86646159	      1.66042086	    -16.25256927	     -2.85755314	      0.15557389
      6.45000000	     -0.78833952	     -0.49178504	   -123.97723138	      0.67836809	      1.00914862	      0.48928330	     21.40897467	     -0.76676967	    -14.01343233	    -29.87677090	     11.11502041	      0.57914820	      0.64350289	      0.95009312	    -10.75753990	    -12.21367853	     13.10589472	      1.61142652	    -16.23340801	     -2.73449964	      0.20550615
      6.46000000	     -0.91402485	     -0.48478056	   -124.57205009	      0.67563704	      1.00895753	      0.49324578	     21.56348472	     -0.45744952	    -14.20317597	    -28.57262491	     10.76965966	      0.87253373	      0.12481407	      0.90161668	    -11.35802196	    -12.03665278	     13.39296716	      1.57471922	    -16.33732921	     -2.62571347	      0.26818278
      6.47000000	     -0.99554540	     -0.41994532	   -125.13177339	      0.67288543	      1.00859989	      0.49720540	     21.79258459	     -0.15392484	    -14.40661637	    -27.31629638	     10.30453680	      1.08522876	     -0.29592869	      0.85746648	    -11.92338597	    -11.89537254	     13.66967174	      1.52968470	    -16.36155662	     -2.51688671	      0.30694959
      6.48000000	     -1.07605403	     -0.37545845	   -125.67630580	      0.67007167	      1.00821471	      0.50123693	     21.99528624	      0.12884856	    -14.64737585	    -26.11391455	      9.79201139	      1.28338270	     -0.74497308	      0.83377498	    -12.47280175	    -11.74376813	     13.93884556	      1.49002210	    -16.39915091	     -2.41220630	      0.33744849
      6.49000000	     -1.14962485	     -0.34552959	   -126.19759564	      0.66720256	      1.00778458	      0.50533421	     22.18221869	      0.38215614	    -14.95158175	    -24.97061701	      9.23986308	      1.45480860	     -1.20302320	      0.82965463	    -12.99586375	    -11.59893588	     14.20821962	      1.45690092	    -16.44251781	     -2.31417646	      0.35019615
